<svg width="343" height="46" viewBox="0 0 343 46" fill="none" xmlns="http://www.w3.org/2000/svg">
<path d="M152.756 45.2165V37.1378C153.879 36.4345 155.283 35.4598 156.968 34.2138C158.653 32.9478 160.418 31.531 162.263 29.9635C164.129 28.396 165.864 26.8084 167.468 25.2007C169.093 23.573 170.417 22.0356 171.44 20.5887C172.463 19.1217 172.974 17.8858 172.974 16.881C172.974 15.856 172.723 14.9216 172.222 14.0775C171.72 13.2134 171.049 12.5301 170.206 12.0277C169.384 11.5253 168.461 11.2741 167.438 11.2741C166.415 11.2741 165.483 11.5253 164.64 12.0277C163.798 12.5301 163.116 13.2134 162.594 14.0775C162.093 14.9216 161.842 15.856 161.842 16.881H152.816C152.816 14.1077 153.488 11.6158 154.832 9.4052C156.176 7.19462 157.951 5.44626 160.157 4.16011C162.384 2.87396 164.811 2.23088 167.438 2.23088C170.106 2.23088 172.543 2.88401 174.749 4.19026C176.956 5.4965 178.711 7.26496 180.014 9.49563C181.338 11.7062 182 14.168 182 16.881C182 18.2274 181.82 19.5135 181.459 20.7394C181.098 21.9452 180.566 23.1409 179.864 24.3266C179.182 25.4921 178.33 26.6879 177.307 27.9137C176.284 29.1396 175.1 30.4358 173.756 31.8023C172.433 33.1488 170.968 34.6057 169.364 36.1732H182V45.2165H152.756Z" fill="#483CFF"/>
<path d="M134.711 0H143.737V45.2163H134.711V42.443C133.788 43.488 132.685 44.3421 131.401 45.0052C130.138 45.6684 128.693 46 127.069 46C124.882 46 122.836 45.588 120.931 44.7641C119.026 43.9402 117.341 42.8047 115.876 41.3578C114.432 39.8908 113.299 38.2027 112.477 36.2936C111.654 34.3844 111.243 32.3346 111.243 30.1442C111.243 27.9537 111.654 25.9039 112.477 23.9948C113.299 22.0856 114.432 20.4076 115.876 18.9607C117.341 17.4937 119.026 16.3482 120.931 15.5242C122.836 14.7003 124.882 14.2883 127.069 14.2883C128.693 14.2883 130.138 14.6199 131.401 15.2831C132.685 15.9262 133.788 16.7803 134.711 17.8453V0ZM127.189 37.3185C128.433 37.3185 129.566 36.9969 130.589 36.3539C131.612 35.7108 132.424 34.8467 133.026 33.7615C133.628 32.6763 133.928 31.4705 133.928 30.1442C133.928 28.8178 133.628 27.6121 133.026 26.5269C132.424 25.4417 131.612 24.5775 130.589 23.9345C129.566 23.2914 128.433 22.9699 127.189 22.9699C125.945 22.9699 124.812 23.2914 123.789 23.9345C122.786 24.5775 121.984 25.4417 121.382 26.5269C120.801 27.6121 120.51 28.8178 120.51 30.1442C120.51 31.4705 120.811 32.6763 121.412 33.7615C122.014 34.8467 122.816 35.7108 123.819 36.3539C124.842 36.9969 125.965 37.3185 127.189 37.3185Z" fill="#483CFF"/>
<path d="M94.4675 45.2162V0H103.493V45.2162H94.4675Z" fill="#483CFF"/>
<path d="M75.24 15.072H84.2661V45.2161H75.24V15.072ZM79.8132 11.937C78.5095 11.937 77.4163 11.5049 76.5338 10.6408C75.6512 9.77664 75.21 8.7015 75.21 7.41535C75.21 6.14929 75.6512 5.0842 76.5338 4.22007C77.4163 3.33584 78.4994 2.89372 79.7831 2.89372C81.0468 2.89372 82.1098 3.33584 82.9723 4.22007C83.8549 5.0842 84.2961 6.14929 84.2961 7.41535C84.2961 8.7015 83.8649 9.77664 83.0024 10.6408C82.16 11.5049 81.0969 11.937 79.8132 11.937Z" fill="#483CFF"/>
<path d="M37.9446 34.2739V15.0721H46.9706V31.7418C46.9706 32.6863 47.2012 33.5505 47.6626 34.3342C48.1239 35.0979 48.7357 35.7108 49.4979 36.173C50.2801 36.6151 51.1326 36.8362 52.0552 36.8362C52.9979 36.8362 53.8504 36.6151 54.6126 36.173C55.3949 35.7108 56.0066 35.0979 56.4479 34.3342C56.9092 33.5505 57.1399 32.6863 57.1399 31.7418V15.0721H66.1659L66.196 45.2163H57.17L57.1399 43.2569C56.137 44.121 54.9937 44.7942 53.71 45.2765C52.4263 45.7588 51.0724 46 49.6483 46C47.5021 46 45.5364 45.4775 43.7513 44.4325C41.9862 43.3674 40.5721 41.9506 39.5091 40.1822C38.4661 38.4137 37.9446 36.4443 37.9446 34.2739Z" fill="#483CFF"/>
<path d="M16.6078 14.2281C19.5363 14.2281 22.204 14.9415 24.6109 16.3683C27.0178 17.7951 28.9334 19.7143 30.3575 22.1258C31.7816 24.5173 32.4936 27.1699 32.4936 30.0839C32.4936 32.2744 32.0824 34.3342 31.2601 36.2634C30.4377 38.1927 29.2944 39.8908 27.8302 41.3578C26.386 42.8047 24.7012 43.9402 22.7756 44.7641C20.8701 45.588 18.8142 46 16.6078 46C15.0233 46 13.5992 45.6584 12.3355 44.9751C11.0719 44.2918 9.96872 43.4277 9.026 42.3827V45.2163H0V0H9.026V17.8453C9.96872 16.7803 11.0719 15.9161 12.3355 15.253C13.5992 14.5697 15.0233 14.2281 16.6078 14.2281ZM16.4875 37.2582C17.7311 37.2582 18.8643 36.9367 19.8873 36.2936C20.9102 35.6505 21.7226 34.7864 22.3243 33.7012C22.926 32.616 23.2269 31.4102 23.2269 30.0839C23.2269 28.7776 22.926 27.5819 22.3243 26.4967C21.7226 25.4115 20.9102 24.5474 19.8873 23.9043C18.8643 23.2412 17.7311 22.9096 16.4875 22.9096C15.264 22.9096 14.1407 23.2412 13.1178 23.9043C12.1149 24.5474 11.3126 25.4115 10.7109 26.4967C10.1091 27.5819 9.80826 28.7776 9.80826 30.0839C9.80826 31.4102 10.1091 32.616 10.7109 33.7012C11.3126 34.7864 12.1149 35.6505 13.1178 36.2936C14.1407 36.9367 15.264 37.2582 16.4875 37.2582Z" fill="#483CFF"/>
<path d="M328.543 26.557V45.2161H324.336V27.401C324.336 25.7531 323.935 24.256 323.133 22.9095C322.332 21.5631 321.26 20.4879 319.918 19.6841C318.575 18.8803 317.083 18.4783 315.44 18.4783C313.817 18.4783 312.324 18.8803 310.962 19.6841C309.619 20.4879 308.547 21.5631 307.746 22.9095C306.945 24.256 306.544 25.7531 306.544 27.401V45.2161H302.336V15.0721H306.544V19.2319C307.606 17.7046 308.988 16.4888 310.691 15.5845C312.394 14.6802 314.248 14.228 316.251 14.228C318.515 14.228 320.579 14.7807 322.442 15.886C324.305 16.9912 325.788 18.4783 326.89 20.3473C327.992 22.2162 328.543 24.2861 328.543 26.557Z" fill="#FF3737"/>
<path d="M278.141 45.2161V15.0721H282.349V19.2319C283.41 17.7046 284.793 16.4888 286.496 15.5845C288.199 14.6802 290.052 14.228 292.056 14.228C293.218 14.228 294.34 14.3787 295.422 14.6802L293.709 18.8702C292.867 18.609 292.046 18.4783 291.244 18.4783C289.621 18.4783 288.129 18.8803 286.766 19.6841C285.424 20.4879 284.352 21.5631 283.551 22.9095C282.749 24.256 282.349 25.7531 282.349 27.401V45.2161H278.141Z" fill="#FF3737"/>
<path d="M264.914 15.0721H269.122V45.2161H264.914L264.764 39.6093C263.782 41.5185 262.41 43.0659 260.647 44.2515C258.884 45.4171 256.78 45.9999 254.335 45.9999C252.132 45.9999 250.068 45.5879 248.144 44.764C246.221 43.9199 244.528 42.7644 243.065 41.2974C241.603 39.8304 240.461 38.1323 239.639 36.2031C238.818 34.2738 238.407 32.2039 238.407 29.9934C238.407 27.823 238.808 25.7833 239.609 23.8741C240.431 21.965 241.553 20.287 242.975 18.8401C244.418 17.3932 246.081 16.2678 247.964 15.4639C249.867 14.64 251.901 14.228 254.065 14.228C256.569 14.228 258.753 14.8309 260.617 16.0367C262.48 17.2223 263.963 18.7798 265.064 20.709L264.914 15.0721ZM254.245 41.9003C256.389 41.9003 258.232 41.3778 259.775 40.3328C261.318 39.2677 262.5 37.8409 263.321 36.0523C264.163 34.2638 264.584 32.2944 264.584 30.1441C264.584 27.9335 264.163 25.944 263.321 24.1756C262.48 22.387 261.288 20.9702 259.745 19.9253C258.202 18.8803 256.369 18.3578 254.245 18.3578C252.121 18.3578 250.178 18.8903 248.415 19.9554C246.672 21.0004 245.279 22.4172 244.237 24.2057C243.216 25.9943 242.705 27.9737 242.705 30.1441C242.705 32.3346 243.236 34.3241 244.298 36.1126C245.359 37.8811 246.762 39.2878 248.505 40.3328C250.268 41.3778 252.182 41.9003 254.245 41.9003Z" fill="#FF3737"/>
<path d="M217.44 45.9999C214.675 45.9999 212.151 45.2865 209.867 43.8596C207.603 42.4328 205.789 40.5237 204.427 38.1323C203.085 35.7207 202.413 33.058 202.413 30.1441C202.413 27.9335 202.804 25.8737 203.586 23.9646C204.367 22.0353 205.439 20.3473 206.801 18.9004C208.184 17.4333 209.787 16.2879 211.61 15.4639C213.433 14.64 215.376 14.228 217.44 14.228C219.664 14.228 221.708 14.6701 223.571 15.5544C225.454 16.4386 227.067 17.6745 228.41 19.2621C229.772 20.8497 230.794 22.7086 231.475 24.8387C232.176 26.9689 232.467 29.2699 232.347 31.7417H206.861C207.102 33.6509 207.703 35.359 208.665 36.8662C209.646 38.3734 210.888 39.5691 212.391 40.4534C213.914 41.3175 215.597 41.7596 217.44 41.7797C219.444 41.7797 221.247 41.2572 222.85 40.2122C224.473 39.1672 225.775 37.7304 226.757 35.9016L231.024 36.8964C229.822 39.5691 228.009 41.7596 225.585 43.4678C223.16 45.1558 220.445 45.9999 217.44 45.9999ZM206.741 28.3355H228.109C227.969 26.4665 227.398 24.7584 226.396 23.211C225.414 21.6435 224.142 20.3975 222.579 19.4731C221.016 18.5286 219.303 18.0563 217.44 18.0563C215.577 18.0563 213.874 18.5185 212.331 19.4429C210.788 20.3473 209.526 21.5832 208.544 23.1507C207.563 24.6981 206.962 26.4263 206.741 28.3355Z" fill="#FF3737"/>
<path d="M190 45.2161V0H194.207V45.2161H190Z" fill="#FF3737"/>
<path d="M343 41.1971C343 43.4135 341.203 45.2103 338.987 45.2103C336.77 45.2103 334.974 43.4135 334.974 41.1971C334.974 38.9807 336.77 37.1839 338.987 37.1839C341.203 37.1839 343 38.9807 343 41.1971Z" fill="#FF3737"/>
</svg>
